<svg width="331" height="333" viewBox="0 0 331 333" fill="none" xmlns="http://www.w3.org/2000/svg">
<g clip-path="url(#clip0_1_16)">
<mask id="mask0_1_16" style="mask-type:luminance" maskUnits="userSpaceOnUse" x="0" y="0" width="331" height="333">
<path d="M154.309 332.061L330.887 147.483L176.862 0.133914L0.283677 184.712L154.309 332.061Z" fill="white"/>
</mask>
<g mask="url(#mask0_1_16)">
<path d="M296.343 176.576C297.126 173.679 297.085 173.115 295.902 171.32C294.091 168.594 290.433 165.343 283.618 160.37C276.23 155.014 271.927 151.312 270.969 149.484C270.719 149.024 270.129 146.609 269.622 144.108C263.926 115.184 256.306 95.577 247.447 86.937C244.879 84.453 243.754 84.012 241.281 84.518C240.045 84.771 239.821 84.889 239.063 85.682C238.58 86.215 238.143 86.846 238.039 87.243C237.919 87.599 237.747 88.097 237.612 88.354L237.368 88.811L237.326 88.191C237.304 87.838 237.161 87.122 237.036 86.588C236.836 85.844 236.857 85.533 237.161 85.216C237.368 85 237.556 84.6 237.579 84.346C237.639 83.879 237.611 83.879 237.128 84.384C236.852 84.672 236.546 84.849 236.459 84.766C236.373 84.683 235.895 83.536 235.401 82.234C234.262 79.267 233.973 78.963 231.137 77.741C226.705 75.849 224.224 75.353 222.148 75.935C221.278 76.18 221.041 76.341 220.604 76.972C220.316 77.359 220.088 77.915 220.095 78.197C220.101 78.479 219.97 78.934 219.821 79.205C219.658 79.491 219.513 79.988 219.478 80.314C219.443 80.639 219.285 81.151 219.108 81.423C218.931 81.723 218.825 82.036 218.856 82.148C218.872 82.275 218.503 82.777 218.006 83.296C217.068 84.277 217.032 84.574 217.872 84.245C218.893 83.841 219.029 84.855 218.103 85.764C217.771 86.082 217.701 86.098 217.865 85.84C218.028 85.583 218.009 85.343 217.836 85.177C217.49 84.846 217.075 85.251 216.813 86.16C216.694 86.515 216.56 86.829 216.489 86.816C216.263 86.821 215.623 85.325 214.748 82.804C213.933 80.394 213.83 80.213 212.995 79.497C212.047 78.728 211.137 78.465 210.297 78.766C210.017 78.857 209.666 78.935 209.496 78.939C209.327 78.943 209.048 79.09 208.869 79.278C208.634 79.523 208.422 79.513 207.894 79.229C206.394 78.429 204.672 78.467 202.857 79.326C202.004 79.726 201.894 79.841 199.852 82.582C198.043 85.022 197.079 86.116 193.051 90.327C190.292 93.211 188.372 95.102 188.369 94.961C188.379 94.806 189.083 92.828 189.95 90.536C191.736 85.811 191.947 85.1 192.271 82.538C193.361 73.805 189.669 65.827 180.927 57.96C175.137 52.781 169.96 49.761 163.524 47.885C157.614 46.152 150.03 45.967 145.998 47.468C144.206 48.129 140.718 49.956 138.197 51.522C135.399 53.264 126.584 59.33 126.102 59.835C125.329 60.643 124.449 62.342 123.814 64.247C123.299 65.825 122.111 70.82 121.8 72.705C121.688 73.399 119.815 77.378 117.905 80.992C116.062 84.476 115.081 87.956 115.316 90.252C115.737 94.633 120.512 101.161 129.742 109.991C133.968 114.034 137.018 116.62 139.639 118.355C141.244 119.42 141.614 119.553 144.638 120.347C148.4 121.323 150.996 121.901 153.73 122.334L155.643 122.645L155.058 123.632C154.255 124.962 154.246 125.231 154.986 125.468C157.33 126.136 160.812 124.69 166.441 120.712C169.665 118.439 172.3 116.348 178.024 111.578C179.23 110.577 182.778 106.984 190.213 99.212C198.007 91.064 200.824 88.207 201.215 88.057C201.495 87.938 201.651 87.949 201.554 88.05C201.472 88.165 201.503 88.277 201.616 88.302C201.744 88.342 201.774 88.426 201.691 88.513C201.609 88.599 201.653 88.697 201.767 88.723C202.15 88.813 202.463 88.312 202.354 87.82C202.199 87.231 202.503 86.942 204.247 86.014C206.884 84.615 208.454 84.764 210.372 86.599C212.146 88.296 212.9 89.818 213.21 92.351C213.281 92.999 213.452 93.715 213.599 93.966C213.951 94.579 214.795 96.989 215.405 99.036C215.68 99.962 215.938 100.76 215.981 100.802C216.039 100.857 216.218 100.67 216.409 100.383C216.736 99.839 216.991 99.862 217.003 100.426C217.017 101.047 217.444 100.572 218.601 98.641C219.635 96.896 219.876 96.298 220.538 93.728C221.924 88.122 223.241 84.493 224.579 82.459C225.562 80.97 226.637 80.395 227.746 80.766C229.253 81.269 231.413 83.833 232.197 86.074C232.635 87.349 232.91 89.573 232.754 90.804C232.66 91.653 232.737 91.948 233.366 92.965C233.776 93.605 234.369 94.89 234.714 95.8C235.839 98.81 236.352 99.66 237.633 100.747C238.74 101.668 239.354 101.979 239.103 101.462C238.896 101.043 239.19 100.966 239.734 101.293C240.235 101.607 240.829 101.65 240.512 101.347C240.194 101.043 240.2 98.121 240.538 95.545C240.922 92.487 241.793 87.88 242.014 87.65C242.235 87.419 243.964 88.355 244.843 89.196C246.704 90.976 247.82 92.928 251.335 100.571C255.786 110.297 258.281 117.158 260.419 125.721C265.375 145.486 265.999 169.779 261.961 186.878C259.419 197.619 255.44 205.329 247.684 214.535C243.144 219.886 240.406 222.431 222.22 238.091L216.597 242.93L214.692 243.593C207.886 246.03 193.661 250.65 187.967 252.272C180.785 254.322 180.223 254.419 174.024 254.344C170.932 254.286 165.455 254.294 161.842 254.317C146.614 254.442 137.926 253.477 128.872 250.67C123.3 248.93 119.074 246.765 114.665 243.348C112.74 241.838 110.848 239.917 110.838 239.466C110.828 239.014 111.963 238.636 114.398 238.314C118.409 237.788 118.941 237.607 119.551 236.478C119.754 236.093 119.955 235.566 119.992 235.325C120.053 234.915 119.939 234.889 118.47 234.809C117.325 234.763 115.721 234.361 112.409 233.319C109.95 232.541 107.888 231.866 107.845 231.825C107.802 231.784 108.393 231.079 109.151 230.258C110.709 228.6 110.471 228.647 108.139 230.421L106.792 231.453L104.3 230.449C101.75 229.419 99.2647 228.091 97.7153 226.967L96.8399 226.323L97.3817 225.93C97.6871 225.698 98.9857 225.062 100.272 224.525C101.573 223.974 103.67 223.081 104.943 222.559C108.062 221.234 109.359 220.542 110.09 219.777C110.642 219.2 110.681 219.073 110.447 218.683C109.964 217.917 107.749 217.345 104.172 217.071C102.15 216.904 101.876 216.67 102.833 215.901C103.513 215.363 102.952 215.517 101.823 216.177C101.015 216.647 100.397 216.801 99.0297 216.874C96.8444 216.993 95.2712 216.703 93.728 215.862C92.0426 214.968 91.4688 213.922 91.8457 212.459C92.0677 211.65 98.0491 203.867 101.683 199.693C104.187 196.787 104.901 195.868 106.469 193.363C108.5 190.114 113.373 182.017 116.011 177.498C117.548 174.881 118.055 174.178 120.874 170.827C122.621 168.77 125.385 165.476 127.049 163.506L130.075 159.91L130.922 157.407C131.851 154.733 133.053 150.387 133.419 148.445C133.596 147.509 134.218 146.253 136.662 141.908C138.984 137.778 139.747 136.547 140.015 136.555C140.256 136.564 140.242 136.607 139.936 136.811C139.728 136.943 139.604 137.101 139.676 137.17C139.734 137.225 138.706 139.224 137.375 141.596C136.059 143.983 135.029 145.925 135.086 145.924C135.326 145.933 140.289 136.789 140.28 136.394C140.274 136.112 140.215 136.028 140.119 136.129C140.022 136.23 139.685 136.294 139.36 136.287L138.768 136.3L136.568 139.581C135.366 141.387 134.325 142.821 134.267 142.766C134.08 142.587 133.37 140.499 132.545 137.694C131.66 134.665 131.174 133.758 128.714 130.439C125.485 126.134 123.53 123.905 119.315 119.707C114.09 114.515 110.826 111.835 106.981 109.647C105.379 108.723 103.3 107.894 103.249 108.149C103.223 108.262 103.123 108.194 103.048 108.012C102.93 107.761 102.874 107.762 102.822 107.989C102.77 108.188 102.728 108.203 102.682 108.02C102.526 107.374 98.7789 107.076 96.531 107.549C93.8052 108.118 91.2901 109.274 86.2048 112.28C84.4628 113.293 82.8174 114.204 82.5516 114.309C82.2713 114.4 80.3757 114.851 78.3535 115.319C71.6115 116.823 69.9135 117.905 66.3813 122.839C59.1934 132.865 56.2687 142.274 58.0438 149.744C59.5066 155.866 63.9466 164.477 69.0017 170.915C71.5444 174.175 75.3085 177.776 77.742 179.304C81.9789 181.948 85.4897 183.042 90.5061 183.284C92.1025 183.348 95.5694 183.102 94.6069 182.982C94.2388 182.934 94.3229 182.903 94.886 182.835C96.0403 182.696 96.2379 182.692 95.8874 182.798C95.6773 182.874 95.6641 182.916 95.8485 182.954C95.9902 182.98 96.1438 182.906 96.1551 182.778C96.2197 182.509 96.937 182.394 96.9991 182.647C97.0154 182.745 97.1414 182.7 97.265 182.542C97.3891 182.412 97.5578 182.38 97.6312 182.506C97.7327 182.631 97.8174 182.629 97.8431 182.515C97.8682 182.373 98.5542 182.118 99.3819 181.888C101.304 181.38 104.931 180.072 107.014 179.137C107.922 178.735 108.581 178.509 108.485 178.666C108.39 178.824 108.422 178.993 108.55 179.032C108.678 179.1 108.7 179.452 108.609 179.807C108.311 180.985 96.343 200.136 89.2253 210.781C85.3187 216.655 85.4473 216.087 87.5755 217.847C89.0277 219.043 92.8953 221.583 93.5054 221.725C93.8176 221.803 93.8597 221.787 93.7004 221.607C93.5562 221.47 93.5831 221.412 93.7531 221.437C93.8948 221.462 94.3864 221.352 94.8629 221.201C96.2355 220.719 98.6559 220.383 100.098 220.492C100.834 220.561 101.244 220.622 100.991 220.656C100.513 220.723 100.645 220.96 101.182 220.976C101.379 220.972 99.6999 221.63 97.4595 222.442C91.6067 224.576 90.5814 225.445 91.3201 227.56C91.8913 229.129 94.3518 231.234 98.2683 233.434C99.3405 234.046 100.356 234.63 100.484 234.698C100.684 234.806 100.606 235.09 100.223 235.663C99.9368 236.107 99.7625 236.521 99.8346 236.59C99.9067 236.659 100.033 236.642 100.116 236.555C100.185 236.483 100.285 236.523 100.316 236.635C100.361 236.761 100.474 236.759 100.598 236.629C100.86 236.355 104.311 236.039 104.795 236.226C104.966 236.307 104.488 236.402 103.698 236.419C102.302 236.464 102.274 236.465 102.118 237.061C101.767 238.438 104.127 241.746 107.668 244.829C111.482 248.147 115.963 250.334 127.562 254.581C136.314 257.789 135.676 257.676 145.161 257.664C151.527 257.651 154.136 258.158 155.78 259.73C156.674 260.586 159.585 263.923 162.182 267.098C168.71 275 172.433 279.279 174.509 281.266C177.335 283.942 180.16 285.898 181.39 285.998C181.927 286.042 181.869 285.987 180.887 285.6C180.673 285.505 181.066 285.384 181.797 285.283C182.502 285.211 183.33 285.037 183.666 284.889C185.526 284.128 189.913 280.149 192.411 276.96C196.075 272.264 198.354 268.727 203.737 259.433C205.94 255.629 207.886 252.382 208.079 252.18C208.631 251.604 215.929 247.815 218.475 246.77C220.979 245.769 222.384 244.849 227.575 240.867C234.667 235.417 238.929 231.539 246.891 223.332C250.602 219.481 253.723 216.335 253.793 216.319C253.948 216.33 251.816 218.847 248.208 222.907C245.867 225.556 245.827 225.628 247.441 223.969C251.1 220.26 256.471 213.606 256.455 212.873C256.451 212.703 256.669 212.36 256.931 212.086C257.207 211.797 258.246 210.25 259.254 208.619C262.266 203.795 264.093 202.174 274.094 195.474C276.416 193.912 279.698 191.694 281.381 190.57C286.819 186.907 290.856 183.755 293.841 180.866L295.651 179.089L296.343 176.576ZM254.062 215.749C254.13 215.62 254.323 215.418 254.476 215.316C254.658 215.213 254.604 215.327 254.383 215.558C254.148 215.803 254.023 215.877 254.062 215.749ZM253.188 216.403C253.186 216.318 253.296 216.175 253.435 216.115C253.589 216.041 253.591 216.126 253.439 216.285C253.302 216.457 253.176 216.502 253.188 216.403ZM183.81 280.552C182.529 281.343 180.528 282.135 180.535 281.839C180.54 281.429 182.45 278.451 183.781 276.713C184.522 275.765 185.332 274.717 185.565 274.416C185.798 274.114 185.732 274.299 185.419 274.828C185.12 275.371 185 275.67 185.18 275.511C185.594 275.107 185.694 275.147 186.744 276.041L187.608 276.784L188.225 275.994L188.843 275.204L188.217 276.263C187.441 277.564 185.355 279.601 183.81 280.552ZM188.893 274.921C188.961 274.792 189.154 274.59 189.307 274.488C189.488 274.385 189.434 274.499 189.214 274.73C188.979 274.975 188.854 275.049 188.893 274.921ZM189.536 273.989C189.534 273.904 189.644 273.761 189.784 273.701C189.937 273.627 189.939 273.712 189.787 273.871C189.65 274.043 189.524 274.088 189.536 273.989ZM190.219 272.986C190.217 272.901 190.327 272.758 190.467 272.698C190.621 272.624 190.623 272.709 190.471 272.867C190.333 273.04 190.207 273.085 190.219 272.986ZM185.999 273.644C185.997 273.559 186.107 273.416 186.247 273.356C186.401 273.282 186.403 273.367 186.251 273.525C186.113 273.698 185.987 273.743 185.999 273.644ZM186.407 272.929C186.405 272.844 186.515 272.701 186.655 272.641C186.808 272.567 186.81 272.652 186.658 272.811C186.521 272.983 186.395 273.028 186.407 272.929ZM178.158 277.769C177.654 277.95 177.09 277.962 176.535 277.791C175.341 277.422 173.436 275.516 170.674 271.936C165.182 264.858 160.7 258.803 160.664 258.465C160.657 258.155 160.895 258.051 162.119 257.868C162.906 257.738 163.836 257.661 164.175 257.682C164.585 257.715 164.473 257.746 163.867 257.801C162.543 257.915 160.898 258.192 160.787 258.307C160.732 258.365 160.959 258.388 161.31 258.338C161.803 258.256 162.173 258.418 163.22 259.143C163.936 259.635 164.955 260.36 165.513 260.729C166.058 261.112 167.048 261.839 167.709 262.332C168.957 263.25 171.654 265.195 176.703 268.81C182.698 273.082 182.583 272.971 182.329 273.612C182.235 273.854 182.238 273.967 182.334 273.866C182.445 273.779 182.699 273.138 182.909 272.428C183.449 270.679 183.617 270.619 183.134 272.366L182.742 273.786L180.835 275.635C179.384 277.036 178.718 277.559 178.158 277.769ZM183.508 270.791C183.479 270.763 183.581 270.253 183.765 269.656C183.936 269.074 184.123 268.618 184.167 268.659C184.195 268.687 184.108 269.183 183.923 269.751C183.595 270.902 183.609 270.888 183.508 270.791ZM173.577 257.728C173.167 257.695 173.166 257.666 173.561 257.629C173.8 257.582 174.025 257.577 174.054 257.604C174.17 257.715 173.987 257.761 173.577 257.728ZM171.034 257.643L170.159 257.606L171.018 257.545C171.85 257.484 172.062 257.493 171.951 257.609C171.924 257.637 171.514 257.632 171.034 257.643ZM166.813 257.581L164.653 257.586L166.797 257.511C168.785 257.425 169.096 257.418 168.985 257.533C168.972 257.547 167.984 257.569 166.813 257.581ZM150.891 257.622C150.296 257.523 147.571 257.456 144.86 257.459C142.136 257.449 139.383 257.439 138.719 257.411C137.306 257.358 134.729 256.991 134.527 256.798C134.455 256.729 134.808 256.736 135.304 256.823C136.651 257.062 138.882 257.126 144.062 257.11C147.986 257.108 150.672 257.274 152.021 257.654C152.561 257.811 152.066 257.78 150.891 257.622ZM133.652 143.005C133.363 142.729 132.701 140.881 131.95 138.23C131.614 137.051 131.143 135.58 130.89 134.978C130.189 133.286 127.292 129.299 123.043 124.24C122.174 123.215 119.618 120.632 116.877 117.982C113.329 114.589 112.578 113.815 113.815 114.832C116.043 116.66 122.092 122.723 124.455 125.508C127.397 128.958 130.803 133.597 131.383 134.925C131.651 135.54 132.255 137.334 132.713 138.876C133.171 140.419 133.685 141.988 133.848 142.338C134.146 143.009 134.041 143.378 133.652 143.005ZM110.644 112.516C109.81 111.829 109.709 111.733 110.253 112.059C110.954 112.481 112.047 113.417 111.835 113.408C111.779 113.409 111.248 113.011 110.644 112.516ZM108.763 111.104C108.704 110.964 108.803 111.004 109.005 111.198C109.207 111.391 109.252 111.489 109.124 111.449C108.995 111.381 108.822 111.216 108.763 111.104ZM107.904 110.558C107.845 110.419 107.944 110.459 108.146 110.652C108.348 110.845 108.393 110.943 108.265 110.903C108.136 110.836 107.963 110.67 107.904 110.558ZM107.045 110.013C106.986 109.873 107.085 109.913 107.287 110.106C107.489 110.299 107.534 110.397 107.406 110.358C107.277 110.29 107.104 110.124 107.045 110.013ZM105.76 109.336C105.686 109.182 105.77 109.18 105.929 109.332C106.102 109.469 106.147 109.595 106.048 109.583C105.963 109.585 105.819 109.475 105.76 109.336Z" fill="#952429"/>
<path d="M187.319 277.143C187.179 277.203 187.07 277.346 187.071 277.431C187.06 277.53 187.186 277.485 187.323 277.313C187.475 277.154 187.473 277.069 187.319 277.143Z" fill="#952429"/>
<path d="M184.479 276.359C184.339 276.419 184.229 276.562 184.231 276.647C184.219 276.746 184.345 276.701 184.482 276.529C184.634 276.37 184.632 276.285 184.479 276.359Z" fill="#952429"/>
<path d="M162.65 260.807C162.491 260.655 162.406 260.657 162.48 260.81C162.54 260.95 162.683 261.06 162.768 261.058C162.867 261.07 162.822 260.944 162.65 260.807Z" fill="#952429"/>
<path d="M161.922 259.835C161.764 259.683 161.679 259.685 161.753 259.838C161.812 259.978 161.956 260.088 162.041 260.086C162.14 260.098 162.095 259.972 161.922 259.835Z" fill="#952429"/>
<path d="M161.268 258.96C161.066 258.767 160.966 258.727 161.026 258.866C161.085 258.978 161.258 259.143 161.386 259.211C161.514 259.251 161.47 259.153 161.268 258.96Z" fill="#952429"/>
<path d="M244.163 226.963C243.623 227.469 242.754 228.378 242.231 228.982C241.694 229.573 242.137 229.168 243.199 228.057C244.261 226.947 244.702 226.457 244.163 226.963Z" fill="#952429"/>
<path d="M240.363 230.647C240.085 230.879 239.644 231.34 239.397 231.656C239.136 231.987 239.358 231.812 239.896 231.25C240.42 230.702 240.626 230.429 240.363 230.647Z" fill="#952429"/>
<path d="M237.79 233.047C237.555 233.235 237.251 233.553 237.101 233.768C236.964 233.968 237.158 233.823 237.545 233.419C237.917 233.03 238.04 232.843 237.79 233.047Z" fill="#952429"/>
<path d="M235.991 234.639C235.755 234.828 235.452 235.145 235.301 235.36C235.164 235.561 235.359 235.415 235.745 235.011C236.117 234.622 236.24 234.436 235.991 234.639Z" fill="#952429"/>
<path d="M234.467 235.943C234.314 236.045 234.093 236.276 233.984 236.448C233.903 236.619 234.043 236.531 234.305 236.257C234.567 235.983 234.648 235.84 234.467 235.943Z" fill="#952429"/>
<path d="M232.805 237.391C232.652 237.494 232.459 237.695 232.392 237.824C232.352 237.952 232.477 237.879 232.712 237.634C232.933 237.403 232.987 237.289 232.805 237.391Z" fill="#952429"/>
<path d="M231.627 238.335C231.515 238.394 231.349 238.567 231.282 238.696C231.242 238.823 231.34 238.779 231.533 238.577C231.726 238.375 231.766 238.275 231.627 238.335Z" fill="#952429"/>
<path d="M230.379 239.351C230.267 239.41 230.102 239.583 230.034 239.711C229.994 239.839 230.092 239.795 230.285 239.593C230.478 239.391 230.519 239.291 230.379 239.351Z" fill="#952429"/>
<path d="M228.159 241.094C228.047 241.152 227.882 241.326 227.814 241.454C227.775 241.582 227.872 241.537 228.066 241.336C228.259 241.134 228.299 241.034 228.159 241.094Z" fill="#952429"/>
<path d="M225.105 243.42C224.965 243.479 224.856 243.623 224.858 243.707C224.846 243.806 224.972 243.761 225.109 243.589C225.261 243.43 225.259 243.346 225.105 243.42Z" fill="#952429"/>
<path d="M223.299 244.73C223.16 244.789 223.05 244.933 223.052 245.018C223.04 245.117 223.166 245.072 223.303 244.899C223.455 244.741 223.453 244.656 223.299 244.73Z" fill="#952429"/>
<path d="M245.82 175.773C247.134 170.733 247.504 165.784 246.924 160.645C246.223 154.478 243.372 146.89 239.394 140.626C238.428 139.095 237.397 137.805 234.952 135.106L231.796 131.591L230.551 131.421C227.875 131.07 224.657 131.72 220.966 133.326C217.234 134.976 211.985 138.239 207.782 141.565C205.563 143.336 200.336 148.886 198.419 151.525C196.597 154.036 194.137 158.311 193.106 160.804C191.577 164.423 190.357 169.221 190.041 172.813C189.824 175.119 191.091 177.49 194.062 180.361C199.009 185.093 204.889 187.983 211.658 188.963C216.232 189.638 222.841 189.139 227.864 187.758C233.671 186.133 239.667 182.811 243.87 178.85L245.391 177.405L245.82 175.773ZM238.202 175.334C237.448 175.661 237.11 175.697 236.893 175.49C236.72 175.324 236.161 173.685 235.64 171.833C234.366 167.218 233.209 165.338 229.503 161.792C224.282 156.798 219.682 154.965 215.903 156.376C214.768 156.782 214.519 156.985 213.194 158.341C211.538 160.072 211.337 160.542 211.368 162.56C211.444 165.367 213.611 169.511 217.35 173.861C218.51 175.247 218.679 175.271 219.714 174.19C220.667 173.223 222.724 171.794 223.634 171.478C225.105 170.979 226.04 171.1 227.061 171.938C227.751 172.516 228.027 172.891 228.268 173.535C228.645 174.642 228.577 176.676 228.093 178.394L227.714 179.744L228.358 180.139C229.618 180.958 229.633 181 228.97 181.636C228.182 182.401 226.853 182.925 225.682 182.965C222.691 183.031 219.377 181.269 214.856 177.247C210.204 173.101 206.956 168.586 205.302 163.992C203.285 158.363 203.977 153.943 207.324 150.82C210.463 147.886 215.206 147.894 221.114 150.784C224.553 152.472 227.322 154.458 230.61 157.603C235.412 162.198 238.508 166.844 239.312 170.651C239.581 171.958 239.637 174.441 239.388 174.701C239.292 174.802 238.761 175.067 238.202 175.334ZM240.733 161.544C239.762 160.394 237.393 157.933 234.998 155.615C230.483 151.268 228.86 149.992 225.101 147.915C219.684 144.887 214.287 144.032 209.463 145.437L207.639 145.958L208.542 144.639C209.376 143.449 209.653 143.189 211.182 142.111C215.685 138.934 221.643 136.487 228.119 135.088L230.381 134.6L231.421 135.65C235.883 140.167 241.529 153.523 242.371 161.564C242.477 162.521 242.51 163.354 242.468 163.397C242.413 163.455 241.646 162.61 240.733 161.544ZM210.912 184.632C207.64 184.097 202.444 182.137 198.897 180.07C196.866 178.873 194.992 177.079 194.181 175.53C193.399 174.009 193.151 172.998 193.125 171.206C193.097 168.666 193.679 166.931 197.008 159.814C198.692 156.206 200.08 153.253 200.08 153.253C200.095 153.267 200.145 154.254 200.2 155.466C200.606 163.588 201.907 168.754 204.46 172.494C205.831 174.468 208.16 177 212.284 180.946L216.308 184.795L214.488 184.849C213.472 184.872 211.861 184.766 210.912 184.632ZM203.386 148.903C203.094 148.486 203.755 147.737 204.749 147.363L205.575 147.048L204.582 148.114C203.7 149.065 203.561 149.153 203.386 148.903Z" fill="#952429"/>
<path d="M190.204 232.898C195.662 216.799 195.171 204.233 188.683 194.298C186.637 191.153 183.638 188.284 181.284 187.164C180.071 186.584 180.071 186.584 177.076 187.116C171.719 188.039 170.947 188.24 168.611 189.18C163.757 191.165 159.089 193.936 154.805 197.404C152.045 199.625 147.589 204.283 145.728 206.893C140.881 213.662 137.802 221.212 137.842 226.193C137.861 228.945 138.634 230.679 140.724 232.651C144.199 235.92 151.561 239.483 160.487 242.25C169.171 244.924 174.456 245.174 179.577 243.169C182.376 242.063 185.699 239.773 187.905 237.438C189.064 236.227 189.092 236.198 190.204 232.898ZM180.536 235.498C177.851 236.601 174.689 235.951 170.724 233.484C168.591 232.134 163.449 227.519 161.506 225.191C156.995 219.743 154.421 213.829 154.768 209.714C155.17 204.934 158.987 201.405 163.869 201.297C168.976 201.185 175.134 203.9 180.547 208.664C184.175 211.859 186.663 215.177 187.879 218.439C188.764 220.805 188.57 224.79 187.491 226.409C187.081 227.011 186.715 226.44 187.038 225.699C187.831 223.917 186.143 221.004 181.607 216.334C176.348 210.888 171.814 208.236 168.178 208.486C166.416 208.595 165.243 209.158 163.904 210.528C161.807 212.692 161.348 214.932 162.301 218.44C163.084 221.26 165.169 224.249 167.127 225.32C167.87 225.727 167.968 225.711 170.911 224.771C172.579 224.24 174.292 223.835 174.702 223.868C175.861 223.928 176.834 224.527 177.679 225.694C178.843 227.278 179.066 229.037 178.359 230.874C178.144 231.386 178.029 231.911 178.102 232.037C178.147 232.163 179.119 232.706 180.233 233.274C181.346 233.814 182.317 234.301 182.389 234.37C182.547 234.522 181.726 235.034 180.536 235.498ZM166.077 239.064C161.137 238.453 155.998 236.492 148.154 232.247C143.282 229.602 141.694 228.663 141.575 228.383C141.324 227.867 142.871 219.349 143.549 217.485C144.812 213.971 146.504 210.729 148.759 207.39C150.289 205.098 152.736 202.136 152.731 202.546C152.735 202.715 152.547 203.778 152.332 204.926C151.763 207.889 151.214 212.418 151.2 214.309C151.181 220.478 154.673 225.807 163.27 232.816C164.794 234.053 167.095 235.978 168.362 237.108L170.694 239.145L169.256 239.205C168.466 239.251 167.039 239.184 166.077 239.064ZM183.681 205.504C175.582 199.302 168.395 196.624 162.445 197.588C160.406 197.902 159.481 198.204 157.582 199.15L155.893 199.992L156.369 199.176C157.971 196.346 162.366 193.398 168.01 191.367C172.547 189.743 176.752 189.043 179.753 189.428L180.985 189.585L182.293 191.306C187.31 197.928 190.251 204.497 190.598 209.938L190.704 211.531L188.025 209.162C186.571 207.853 184.614 206.203 183.681 205.504Z" fill="#952429"/>
<path d="M169.166 177.946C169.39 177.25 169.927 176.024 170.347 175.21C171.024 173.897 171.381 173.465 173.616 171.157C175.783 168.922 176.35 168.415 177.937 167.42L179.746 166.251L180.49 163.51C180.908 162.005 181.313 160.514 181.418 160.173L181.589 159.59L178.464 159.97C174.958 160.4 169.287 161.189 166.39 161.676C164.773 161.952 164.349 161.933 163.721 161.58C162.72 161.038 161.2 159.335 160.607 158.049C159.186 155.088 159.059 149.967 160.305 146.961C161.805 143.315 166.754 140.566 173.062 139.834C174.231 139.709 175.257 139.531 175.326 139.459C175.464 139.315 175.907 137.032 175.793 136.95C175.749 136.909 174.623 137.047 173.286 137.231C170.472 137.632 167.947 138.337 165.823 139.316C163.252 140.474 162.265 141.187 160.723 142.943C159.155 144.757 158.181 146.67 156.543 151.096L155.611 153.629L152.153 154.905C146.062 157.143 144.742 158.09 143.167 161.498C141.415 165.263 139.974 170.927 140.14 173.323C140.258 174.788 140.786 175.708 141.768 176.068C142.694 176.428 143.081 176.081 143.36 174.635C143.55 173.657 143.509 171.188 143.267 169.189C142.869 165.88 147.644 159.705 151.814 158.088C153.242 157.549 155.289 157.574 156.558 158.153C157.828 158.732 159.511 160.149 160.313 161.302C161.29 162.735 161.974 164.908 162.118 166.951C162.184 168.008 161.936 171.5 161.537 175.123C161.163 178.603 160.902 181.503 160.96 181.558C161.205 181.764 164.578 181.125 166.118 180.555C168.359 179.743 168.663 179.482 169.166 177.946ZM165.564 177.843C164.52 177.866 164.018 177.524 163.572 176.489C162.649 174.336 163.177 168.876 164.538 166.587C164.973 165.843 165.235 165.598 166.099 165.099C167.424 164.35 170.478 163.294 173.16 162.684C175.183 162.244 178.043 161.998 178.317 162.26C178.389 162.329 177.262 163.709 175.678 165.48C171.133 170.549 168.417 174.11 167.463 176.262C166.83 177.673 166.664 177.818 165.564 177.843Z" fill="#952429"/>
<path d="M146.953 192.793C146.83 192.344 146.803 192.373 132.869 206.937C125.199 214.955 118.979 221.515 119.064 221.513C119.135 221.525 120.009 220.871 120.98 220.087C122.45 218.897 124.921 216.401 134.909 205.96C146.91 193.415 147.062 193.256 146.953 192.793Z" fill="#952429"/>
<path d="M154.495 184.072C154.367 184.033 153.698 184.414 152.974 184.882C151.917 185.583 151.281 186.19 149.546 188.148C147.288 190.71 146.631 191.628 146.823 192.005C146.911 192.173 147.823 191.305 150.831 188.162C153.203 185.682 154.622 184.083 154.495 184.072Z" fill="#952429"/>
<path d="M118.558 221.637C117.828 221.822 116.123 223.229 113.623 225.698C111.883 227.402 111.084 228.295 111.185 228.392C111.372 228.571 112.466 227.629 115.368 224.799C116.625 223.571 117.939 222.342 118.285 222.066C118.715 221.704 118.797 221.589 118.558 221.637Z" fill="#952429"/>
<path d="M216.978 115.841C216.842 115.406 216.8 115.45 202.881 130C195.197 138.032 189.005 144.591 189.104 144.603C189.217 144.6 189.981 144.033 190.827 143.351C191.978 142.436 195.47 138.873 204.741 129.21C216.977 116.42 217.115 116.275 216.978 115.841Z" fill="#952429"/>
<path d="M223.503 107.721C223.46 107.073 223.542 106.958 224.991 105.444C226.37 104.002 226.507 103.802 226.413 103.38C226.305 102.945 226.277 102.974 224.832 104.657C223.937 105.679 223.363 106.511 223.34 106.737C223.332 107.034 222.384 108.17 219.959 110.877C216.832 114.32 216.598 114.621 216.788 114.913C216.979 115.234 217.145 115.089 220.263 111.83L223.546 108.398L223.503 107.721Z" fill="#952429"/>
<path d="M188.055 145.035C187.051 145.594 184.019 148.272 181.95 150.435L180.377 152.079L180.738 152.424L181.099 152.769L184.974 148.689C188.505 144.969 188.794 144.638 188.055 145.035Z" fill="#952429"/>
<path d="M97.9365 237.563C97.6267 237.598 96.878 238.208 97.105 238.259C97.2185 238.285 97.4976 238.137 97.6907 237.936C97.8976 237.719 97.9929 237.562 97.9365 237.563Z" fill="#952429"/>
<path d="M228.871 99.656C228.763 99.249 228.9 99.048 230.004 97.895C231.052 96.799 231.257 96.498 231.207 96.146C231.159 95.907 231.097 95.654 231.054 95.613C230.996 95.558 230.417 96.163 229.742 96.926C228.724 98.106 228.547 98.407 228.586 98.886C228.639 99.379 228.49 99.65 227.47 100.774C226.686 101.68 226.317 102.211 226.35 102.464C226.385 102.774 226.594 102.614 227.683 101.475C228.828 100.278 228.979 100.063 228.871 99.656Z" fill="#952429"/>
<path d="M150.195 181.782C149.885 181.817 149.165 182.425 149.295 182.55C149.367 182.619 149.632 182.486 149.88 182.226C150.115 181.981 150.251 181.78 150.195 181.782Z" fill="#952429"/>
<path d="M94.7524 239.737C94.7235 239.709 94.5141 239.813 94.2921 239.987C94.0557 240.147 93.9328 240.334 93.9905 240.389C94.0626 240.458 94.272 240.354 94.4652 240.152C94.6583 239.95 94.7812 239.764 94.7524 239.737Z" fill="#952429"/>
<path d="M146.583 184.374C144.763 185.727 143.006 187.304 143.15 187.442C143.222 187.511 144.138 186.814 145.205 185.901C147.601 183.829 148.193 183.181 146.583 184.374Z" fill="#952429"/>
<path d="M91.962 241.21C91.9331 241.182 91.7645 241.214 91.597 241.303C91.4434 241.377 91.4026 241.448 91.5306 241.488C91.7576 241.539 92.0773 241.32 91.962 241.21Z" fill="#952429"/>
<path d="M231.937 94.055C231.256 94.564 230.995 94.866 231 95.092C231.005 95.318 231.255 95.143 231.944 94.393L232.881 93.356L231.937 94.055Z" fill="#952429"/>
<path d="M141.912 188.274C140.615 188.966 137.1 192.149 137.36 192.398C137.418 192.453 138.25 191.785 139.19 190.918C140.145 190.035 141.251 189.023 141.666 188.647C142.276 188.125 142.331 188.039 141.912 188.274Z" fill="#952429"/>
<path d="M89.1622 242.895C89.0506 242.954 88.885 243.127 88.8173 243.256C88.7778 243.383 88.8756 243.339 89.0688 243.137C89.2619 242.935 89.302 242.835 89.1622 242.895Z" fill="#952429"/>
<path d="M178.779 148.12L178.584 147.602L181.371 144.689C183.937 142.007 184.156 141.72 184.077 141.34C183.97 140.962 183.914 140.991 183.295 141.725C182.923 142.142 181.697 143.51 180.568 144.749C179.273 146.189 178.517 147.124 178.521 147.321C178.526 147.547 178.032 148.179 177.246 149.001C175.963 150.342 175.963 150.342 176.324 150.687C176.684 151.032 176.698 151.017 177.829 149.835C178.933 148.681 178.974 148.61 178.779 148.12Z" fill="#952429"/>
<path d="M136.123 193.286C135.997 193.331 135.094 193.986 134.095 194.742C132.734 195.761 132.333 196.151 132.463 196.275C132.564 196.371 133.038 196.079 133.785 195.413C134.436 194.848 135.267 194.124 135.64 193.791C136.029 193.472 136.236 193.255 136.123 193.286Z" fill="#952429"/>
<path d="M87.0145 244.072C86.2721 244.328 85.8294 244.733 86.0313 244.926C86.1179 245.009 86.3135 244.92 86.479 244.747C86.6584 244.56 86.9913 244.298 87.2133 244.124C87.5889 243.876 87.5463 243.862 87.0145 244.072Z" fill="#952429"/>
<path d="M129.791 197.999C129.43 198.262 128.903 198.697 128.656 198.984C128.201 199.46 128.229 199.46 128.924 198.964C129.326 198.659 129.825 198.225 130.059 197.979C130.418 197.605 130.39 197.605 129.791 197.999Z" fill="#952429"/>
<path d="M84.0016 245.691C83.8618 245.751 83.752 245.894 83.7539 245.979C83.742 246.078 83.868 246.033 84.0054 245.86C84.1571 245.702 84.1552 245.617 84.0016 245.691Z" fill="#952429"/>
<path d="M188.812 135.265C188.775 134.871 188.595 135.03 186.392 137.506C183.155 141.121 183.194 141.628 186.45 138.225C188.533 136.048 188.863 135.645 188.812 135.265Z" fill="#952429"/>
<path d="M148.821 177.126C148.677 176.988 148.481 177.049 148.232 177.308C147.832 177.726 147.861 177.754 148.562 177.513C148.968 177.377 149.009 177.305 148.821 177.126Z" fill="#952429"/>
<path d="M125.49 201.341C125.129 201.603 124.671 201.966 124.492 202.182C124.175 202.513 124.203 202.513 124.677 202.22C124.955 202.044 125.427 201.667 125.689 201.393L126.171 200.888L125.49 201.341Z" fill="#952429"/>
<path d="M238.767 81.892L238.654 81.259L238.01 82.134C237.435 82.938 237.331 83.363 237.62 83.667C237.678 83.723 237.984 83.49 238.301 83.158C238.769 82.64 238.863 82.398 238.767 81.892Z" fill="#952429"/>
<path d="M192.443 130.343L192.288 129.726L190.402 131.842C188.57 133.901 188.352 134.273 188.786 134.715C188.843 134.77 189.714 133.946 190.735 132.879C192.584 130.947 192.584 130.947 192.443 130.343Z" fill="#952429"/>
<path d="M122.032 203.916C121.892 203.975 121.783 204.119 121.785 204.204C121.773 204.303 121.899 204.258 122.036 204.085C122.188 203.927 122.186 203.842 122.032 203.916Z" fill="#952429"/>
<path d="M145.614 178.89C145.39 178.98 145.098 179.198 144.947 179.357C144.726 179.588 144.769 179.601 145.131 179.395C145.759 179.057 146.117 178.682 145.614 178.89Z" fill="#952429"/>
<path d="M120.906 204.689C120.545 204.951 120.115 205.285 119.977 205.458C119.757 205.688 119.799 205.701 120.162 205.496C120.413 205.349 120.843 205.015 121.105 204.741L121.588 204.236L120.906 204.689Z" fill="#952429"/>
<path d="M239.954 79.409C239.914 78.874 239.9 78.888 239.417 79.393C238.838 79.999 238.433 80.855 238.649 81.062C238.722 81.131 239.07 80.911 239.387 80.579C239.814 80.132 239.976 79.79 239.954 79.409Z" fill="#952429"/>
<path d="M195.284 126.046L195.16 125.569L193.73 127.266C192.946 128.172 192.246 129.077 192.165 129.248C191.856 129.975 192.566 129.522 193.932 128.094C195.298 126.667 195.393 126.509 195.284 126.046Z" fill="#952429"/>
<path d="M142.761 180.718C142.51 180.865 142.176 181.098 142.025 181.256C141.804 181.487 141.847 181.5 142.209 181.295C142.46 181.148 142.793 180.915 142.945 180.756C143.166 180.525 143.123 180.512 142.761 180.718Z" fill="#952429"/>
<path d="M118 206.687C117.861 206.746 117.751 206.89 117.753 206.975C117.741 207.074 117.867 207.029 118.004 206.856C118.156 206.698 118.154 206.613 118 206.687Z" fill="#952429"/>
<path d="M117.304 207.126C117.193 207.185 117.027 207.358 116.959 207.486C116.92 207.614 117.018 207.57 117.211 207.368C117.404 207.166 117.444 207.066 117.304 207.126Z" fill="#952429"/>
<path d="M77.9882 248.223C77.8484 248.283 77.7387 248.426 77.7406 248.511C77.7286 248.61 77.8547 248.565 77.992 248.393C78.1438 248.234 78.1419 248.149 77.9882 248.223Z" fill="#952429"/>
<path d="M240.438 77.719C240.418 77.423 240.356 77.17 240.299 77.172C240.116 77.162 239.707 78.483 239.866 78.635C240.126 78.883 240.507 78.282 240.438 77.719Z" fill="#952429"/>
<path d="M198.181 121.775C198.056 121.213 198.097 121.142 199.697 119.469C201.201 117.897 201.324 117.711 201.202 117.319C201.066 116.912 201.024 116.927 200.334 117.648C199.231 118.83 197.82 120.767 197.882 121.02C197.913 121.132 197.312 122.049 196.53 123.04C195.762 124.045 195.104 124.935 195.078 125.048C194.951 125.672 195.479 125.322 196.818 123.923C198.266 122.409 198.307 122.337 198.181 121.775Z" fill="#952429"/>
<path d="M140.046 182.401C139.432 182.725 138.862 183.119 138.766 183.248C138.535 183.663 139.47 183.176 140.371 182.436L141.147 181.798L140.046 182.401Z" fill="#952429"/>
<path d="M115.076 208.502C113.793 209.179 113.71 209.266 113.883 209.432C114.027 209.57 114.459 209.292 115.569 208.42C116.095 207.985 116.025 208.001 115.076 208.502Z" fill="#952429"/>
<path d="M76.4062 248.809C75.8293 248.892 75.6211 249.052 75.823 249.245C75.9096 249.328 76.0224 249.326 76.0914 249.253C76.1604 249.181 76.383 249.035 76.5642 248.932C76.857 248.771 76.8426 248.757 76.4062 248.809Z" fill="#952429"/>
<path d="M240.932 75.788C240.84 75.48 240.754 75.397 240.643 75.512C240.395 75.772 240.242 76.509 240.386 76.647C240.646 76.896 241.069 76.223 240.932 75.788Z" fill="#952429"/>
<path d="M176.135 143.464L176.108 142.886L175.188 144.049C174.2 145.313 173.997 145.699 174.184 145.878C174.256 145.947 174.728 145.57 175.224 145.023C175.983 144.229 176.159 143.929 176.135 143.464Z" fill="#952429"/>
<path d="M111.874 210.492C111.734 210.552 111.625 210.695 111.626 210.78C111.615 210.879 111.741 210.834 111.878 210.662C112.03 210.503 112.028 210.418 111.874 210.492Z" fill="#952429"/>
<path d="M111.178 210.931C111.038 210.991 110.929 211.134 110.93 211.219C110.918 211.318 111.045 211.273 111.182 211.1C111.334 210.942 111.332 210.857 111.178 210.931Z" fill="#952429"/>
<path d="M242.121 73.391C242.014 73.012 241.97 72.971 241.763 73.187C241.17 73.807 240.696 74.707 240.8 74.944C240.904 75.154 241.085 75.051 241.582 74.532C242.078 74.013 242.199 73.742 242.121 73.391Z" fill="#952429"/>
<path d="M202.942 114.316C202.804 113.825 202.79 113.839 202.257 114.599C201.941 115.016 201.516 115.547 201.309 115.764C201.088 115.994 200.996 116.293 201.056 116.461C201.174 116.684 201.355 116.581 202.127 115.774C202.928 114.937 203.036 114.737 202.942 114.316Z" fill="#952429"/>
<path d="M177.959 140.431C177.85 139.968 177.822 139.968 176.998 141.031C176.546 141.62 176.151 142.292 176.156 142.518C176.164 142.856 176.303 142.769 177.117 141.918C177.945 141.053 178.067 140.838 177.959 140.431Z" fill="#952429"/>
<path d="M134.264 185.846C133.637 186.185 133.278 186.56 133.781 186.351C134.005 186.261 134.297 186.043 134.449 185.884C134.669 185.654 134.627 185.64 134.264 185.846Z" fill="#952429"/>
<path d="M109.088 212.163C108.543 212.387 108.322 212.618 108.743 212.524C108.926 212.477 109.177 212.33 109.287 212.215C109.425 212.071 109.354 212.058 109.088 212.163Z" fill="#952429"/>
<path d="M242.786 71.541C242.617 70.938 242.617 70.938 242.22 71.497C242.014 71.77 241.95 72.068 242.051 72.164C242.152 72.261 242.199 72.472 242.132 72.6C242.092 72.728 242.246 72.654 242.466 72.423C242.757 72.149 242.849 71.85 242.786 71.541Z" fill="#952429"/>
<path d="M204.777 111.128C204.597 110.652 204.651 110.538 205.52 109.629C206.375 108.735 206.645 108.165 206.328 107.861C206.154 107.695 204.536 109.82 204.503 110.259C204.494 110.471 204.058 111.186 203.523 111.861C202.74 112.852 202.605 113.11 202.78 113.388C202.956 113.695 203.068 113.636 203.979 112.684C204.917 111.703 204.971 111.589 204.777 111.128Z" fill="#952429"/>
<path d="M179.808 137.228C179.628 136.781 179.695 136.624 180.33 135.961C180.909 135.355 181.045 135.098 180.952 134.733C180.845 134.354 180.981 134.125 181.767 133.303C182.609 132.424 182.892 131.839 182.604 131.563C182.445 131.411 180.77 133.537 180.751 133.933C180.741 134.145 180.457 134.701 180.115 135.175C179.773 135.648 179.516 136.176 179.534 136.359C179.552 136.542 179.144 137.229 178.595 137.919C177.771 138.953 177.636 139.21 177.811 139.489C177.987 139.795 178.099 139.736 179.009 138.785C179.947 137.804 180.001 137.69 179.808 137.228Z" fill="#952429"/>
<path d="M99.4404 220.747C98.2258 220.717 97.9862 220.736 98.1016 220.847C98.1305 220.874 98.723 220.861 99.4278 220.817L100.739 220.746L99.4404 220.747Z" fill="#952429"/>
<path d="M130.991 187.824C130.767 187.914 130.489 188.089 130.378 188.204C130.254 188.334 130.326 188.375 130.577 188.257C130.801 188.167 131.079 187.991 131.19 187.876C131.314 187.746 131.242 187.705 130.991 187.824Z" fill="#952429"/>
<path d="M106.022 213.925C105.798 214.014 105.52 214.19 105.409 214.305C105.285 214.435 105.357 214.476 105.608 214.357C105.832 214.268 106.11 214.092 106.221 213.977C106.345 213.847 106.273 213.806 106.022 213.925Z" fill="#952429"/>
<path d="M243.292 69.54C243.182 69.076 243.154 69.077 242.814 69.635C242.392 70.336 242.339 70.506 242.527 70.686C242.786 70.934 243.415 70.017 243.292 69.54Z" fill="#952429"/>
<path d="M128.776 189.157C128.748 189.13 128.566 189.204 128.371 189.322C128.176 189.439 128.108 189.567 128.235 189.579C128.434 189.631 128.892 189.268 128.776 189.157Z" fill="#952429"/>
<path d="M207.61 105.857C207.591 105.645 207.544 105.435 207.501 105.393C207.342 105.241 206.291 106.86 206.286 107.269C206.294 107.608 206.392 107.563 206.971 106.958C207.37 106.511 207.643 106.082 207.61 105.857Z" fill="#952429"/>
<path d="M126.406 190.48C126.377 190.453 126.195 190.527 126 190.644C125.805 190.762 125.71 190.919 125.782 190.988C125.854 191.057 126.036 190.982 126.188 190.824C126.34 190.665 126.435 190.508 126.406 190.48Z" fill="#952429"/>
<path d="M209.358 102.586L209.178 102.081L208.394 103.044C207.626 104.021 207.22 104.849 207.451 105.07C207.509 105.125 208.022 104.704 208.56 104.142C209.498 103.161 209.552 103.047 209.358 102.586Z" fill="#952429"/>
<path d="M184.389 128.686L184.208 128.182L183.425 129.145C182.656 130.122 182.251 130.95 182.482 131.17C182.54 131.225 183.053 130.805 183.591 130.242C184.529 129.262 184.583 129.148 184.389 128.686Z" fill="#952429"/>
<path d="M210.53 100.061C210.437 99.696 210.559 99.454 211.138 98.848C211.8 98.156 211.854 98.013 211.674 97.566C211.495 97.09 211.548 96.976 212.389 96.068L213.313 95.073L212.424 95.714C211.701 96.238 211.495 96.483 211.392 96.937C211.315 97.249 211.031 97.834 210.758 98.235C210.498 98.622 210.323 98.979 210.395 99.048C210.568 99.213 210.027 100.298 209.517 100.832C209.241 101.12 209.12 101.419 209.195 101.601C209.431 102.076 210.684 100.651 210.53 100.061Z" fill="#952429"/>
<path d="M185.561 126.162C185.468 125.797 185.59 125.554 186.197 124.92C186.611 124.487 186.927 124.099 186.898 124.071C186.869 124.044 186.766 123.863 186.691 123.681C186.544 123.402 186.475 123.446 186.064 124.048C185.804 124.406 185.481 125.091 185.35 125.545C185.218 125.972 184.92 126.543 184.672 126.803C184.437 127.048 184.262 127.433 184.281 127.644C184.317 127.982 184.415 127.938 184.994 127.332C185.518 126.784 185.654 126.527 185.561 126.162Z" fill="#952429"/>
<path d="M121.108 193.42C121.079 193.393 120.869 193.496 120.647 193.67C120.411 193.831 120.288 194.017 120.346 194.072C120.418 194.141 120.627 194.038 120.82 193.836C121.013 193.634 121.136 193.448 121.108 193.42Z" fill="#952429"/>
<path d="M118.667 194.759C118.248 194.937 117.9 195.157 117.916 195.255C117.908 195.524 118.104 195.463 118.784 194.926L119.436 194.445L118.667 194.759Z" fill="#952429"/>
<path d="M187.827 121.425C187.814 120.833 187.646 120.893 187.043 121.725C186.166 122.902 186.248 123.422 187.145 122.485C187.517 122.096 187.831 121.623 187.827 121.425Z" fill="#952429"/>
<path d="M115.931 196.146C115.82 196.205 115.654 196.378 115.586 196.507C115.547 196.634 115.645 196.59 115.838 196.388C116.031 196.186 116.071 196.087 115.931 196.146Z" fill="#952429"/>
<path d="M90.9621 222.247C90.8504 222.306 90.6849 222.479 90.6172 222.607C90.5777 222.735 90.6755 222.691 90.8686 222.489C91.0618 222.287 91.1019 222.187 90.9621 222.247Z" fill="#952429"/>
<path d="M189.703 118.166C189.666 117.771 189.582 117.83 188.758 118.864C187.412 120.531 187.367 121.069 188.706 119.698C189.52 118.847 189.752 118.489 189.703 118.166Z" fill="#952429"/>
<path d="M113.423 197.613C113.283 197.673 113.173 197.816 113.175 197.901C113.163 198 113.289 197.955 113.427 197.782C113.579 197.624 113.577 197.539 113.423 197.613Z" fill="#952429"/>
<path d="M190.836 115.826L190.696 115.222L190.051 116.069C189.489 116.829 189.373 117.298 189.676 117.616C189.734 117.671 190.053 117.424 190.384 117.078C190.881 116.559 190.975 116.345 190.836 115.826Z" fill="#952429"/>
<path d="M110.909 198.798C110.769 198.857 110.659 199.001 110.661 199.086C110.649 199.185 110.775 199.14 110.912 198.967C111.064 198.809 111.062 198.724 110.909 198.798Z" fill="#952429"/>
<path d="M86.4912 224.322C86.3514 224.381 86.2417 224.525 86.2436 224.609C86.2316 224.709 86.3577 224.663 86.495 224.491C86.6467 224.332 86.6449 224.248 86.4912 224.322Z" fill="#952429"/>
<path d="M191.926 113.388C191.805 113.052 191.735 113.067 191.307 113.515C190.811 114.034 190.475 114.789 190.676 114.982C190.734 115.038 191.067 114.776 191.412 114.416C191.881 113.925 192.016 113.64 191.926 113.388Z" fill="#952429"/>
<path d="M193.129 111.032C193.022 110.625 192.979 110.612 192.62 110.987C192.124 111.506 191.625 112.576 191.798 112.741C191.87 112.81 192.218 112.563 192.59 112.173C193.087 111.654 193.208 111.383 193.129 111.032Z" fill="#952429"/>
<path d="M194.308 108.79C194.207 108.694 194.144 108.413 194.182 108.2C194.271 107.789 193.873 108.263 193.027 109.581C192.495 110.425 193.062 110.526 193.834 109.718C194.345 109.185 194.466 108.942 194.308 108.79Z" fill="#952429"/>
<path d="M194.867 106.646C194.76 106.268 194.732 106.268 194.418 106.769C194.023 107.413 194.189 107.903 194.658 107.413C194.838 107.226 194.929 106.899 194.867 106.646Z" fill="#952429"/>
<path d="M196.011 104.123C195.832 103.675 195.899 103.518 196.478 102.913C196.988 102.379 197.137 102.079 197.113 101.642L197.058 101.065L196.483 101.868C196.168 102.312 195.872 102.94 195.808 103.238C195.744 103.564 195.462 104.205 195.163 104.72C194.441 105.908 194.647 106.27 195.544 105.333C196.123 104.727 196.19 104.57 196.011 104.123Z" fill="#952429"/>
<path d="M100.711 203.597C99.7453 203.971 99.6205 204.072 99.808 204.252C99.8801 204.321 100.244 204.2 100.592 203.98C101.596 203.394 101.635 203.237 100.711 203.597Z" fill="#952429"/>
<path d="M78.3722 227.381C78.3434 227.353 78.0205 227.431 77.67 227.537C77.3056 227.658 77.083 227.804 77.1551 227.873C77.2273 227.942 77.5088 227.908 77.7885 227.789C78.3622 227.564 78.4732 227.477 78.3722 227.381Z" fill="#952429"/>
<path d="M197.782 99.962C197.748 99.737 197.674 99.555 197.589 99.557C197.392 99.561 197.003 100.515 197.081 100.81C197.188 101.189 197.834 100.398 197.782 99.962Z" fill="#952429"/>
<path d="M222.074 73.269C221.906 72.666 221.863 72.653 221.591 73.11C221.129 73.939 221.328 74.627 221.88 74.05C222.045 73.877 222.136 73.522 222.074 73.269Z" fill="#952429"/>
<path d="M198.813 97.469C198.633 96.993 198.619 97.0071 198.071 97.7251C197.083 98.9891 197.311 99.7321 198.345 98.6511C198.911 98.0601 198.977 97.875 198.813 97.469Z" fill="#952429"/>
<path d="M222.694 71.3219C222.659 70.9839 222.588 70.999 222.23 71.374C222.009 71.605 221.848 71.976 221.867 72.187C221.902 72.525 221.973 72.509 222.331 72.134C222.552 71.904 222.713 71.5329 222.694 71.3219Z" fill="#952429"/>
<path d="M199.491 95.577C199.455 95.239 199.399 95.24 199.137 95.514C198.957 95.701 198.796 96.072 198.774 96.326C198.713 96.794 198.742 96.793 199.128 96.389C199.334 96.145 199.51 95.788 199.491 95.577Z" fill="#952429"/>
<path d="M223.286 69.375C223.136 68.955 223.108 68.955 222.836 69.413C222.673 69.699 222.541 70.125 222.546 70.351C222.553 70.69 222.61 70.688 222.996 70.285C223.3 69.967 223.392 69.697 223.286 69.375Z" fill="#952429"/>
<path d="M200.591 92.983C200.455 92.577 200.52 92.335 200.865 91.975C201.127 91.701 201.247 91.402 201.173 91.22C200.981 90.843 200.802 91.059 200.459 92.111C200.3 92.594 199.976 93.279 199.758 93.623C199.512 93.967 199.338 94.408 199.356 94.591C199.405 94.887 199.517 94.828 200.082 94.237C200.676 93.617 200.743 93.46 200.591 92.983Z" fill="#952429"/>
<path d="M68.633 229.939C68.4505 229.985 68.1012 230.148 67.8648 230.309L67.419 230.573L67.9802 230.419C68.3031 230.342 68.638 230.165 68.7483 230.049C68.9277 229.862 68.9133 229.848 68.633 229.939Z" fill="#952429"/>
<path d="M223.855 66.356C223.819 66.018 223.749 66.033 223.39 66.408C223.169 66.639 223.008 67.01 223.027 67.221C223.063 67.559 223.133 67.543 223.491 67.168C223.712 66.938 223.873 66.567 223.855 66.356Z" fill="#952429"/>
<path d="M201.837 89.37C201.734 89.161 201.594 89.192 201.345 89.452C201.152 89.654 201.005 90.01 201.01 90.236C201.004 90.617 201.061 90.616 201.488 90.169C201.792 89.851 201.912 89.552 201.837 89.37Z" fill="#952429"/>
<path d="M119.794 173.053C119.654 173.112 119.545 173.256 119.546 173.34C119.535 173.44 119.661 173.394 119.798 173.222C119.95 173.063 119.948 172.979 119.794 173.053Z" fill="#952429"/>
<path d="M123.644 168.451C123.533 168.51 123.367 168.683 123.299 168.811C123.26 168.939 123.358 168.895 123.551 168.693C123.744 168.491 123.784 168.391 123.644 168.451Z" fill="#952429"/>
<path d="M125.707 166.005C125.513 166.151 125.237 166.439 125.086 166.654C124.95 166.855 125.117 166.738 125.461 166.378C125.806 166.017 125.915 165.846 125.707 166.005Z" fill="#952429"/>
<path d="M127.425 163.921C127.272 164.023 127.079 164.225 127.012 164.353C126.972 164.481 127.097 164.408 127.332 164.163C127.553 163.932 127.607 163.818 127.425 163.921Z" fill="#952429"/>
<path d="M129.488 161.476C129.253 161.664 128.949 161.982 128.799 162.197C128.662 162.397 128.856 162.252 129.243 161.848C129.615 161.459 129.738 161.272 129.488 161.476Z" fill="#952429"/>
<path d="M224.342 60.967C224.167 60.717 224.024 60.635 223.956 60.764C223.902 60.878 223.725 61.178 223.548 61.45C223.126 62.151 223.584 62.452 224.164 61.846C224.55 61.442 224.575 61.301 224.342 60.967Z" fill="#952429"/>
<path d="M131.728 157.46C131.886 156.92 131.934 156.552 131.865 156.624C131.782 156.71 131.61 157.208 131.452 157.748C131.295 158.288 131.233 158.67 131.316 158.584C131.385 158.512 131.571 157.999 131.728 157.46Z" fill="#952429"/>
<path d="M77.2594 212.231C76.4725 212.39 76.137 212.538 76.2524 212.649C76.3245 212.718 76.606 212.683 76.8857 212.564C77.5435 212.31 77.7228 212.122 77.2594 212.231Z" fill="#952429"/>
<path d="M133.294 152.329C133.582 151.307 133.944 149.802 134.095 148.98C134.26 148.144 134.534 147.164 134.695 146.793L135.019 146.109L134.623 146.696C134.404 147.012 134.127 147.879 134.002 148.615C133.863 149.338 133.516 150.885 133.189 152.035C132.862 153.214 132.629 154.179 132.658 154.207C132.745 154.289 132.745 154.289 133.294 152.329Z" fill="#952429"/>
<path d="M205.704 75.339C205.664 74.803 205.664 74.803 205.35 75.304C205.174 75.605 205.042 76.031 205.032 76.243C205.04 76.582 205.083 76.595 205.386 76.278C205.579 76.076 205.725 75.663 205.704 75.339Z" fill="#952429"/>
<path d="M206.3 73.59C206.165 73.211 206.122 73.198 205.819 73.516C205.612 73.732 205.52 74.058 205.611 74.311C205.746 74.689 205.789 74.702 206.092 74.385C206.299 74.168 206.391 73.842 206.3 73.59Z" fill="#952429"/>
<path d="M206.864 70.373C206.824 69.837 206.824 69.837 206.51 70.338C206.334 70.639 206.202 71.065 206.193 71.277C206.2 71.616 206.243 71.629 206.546 71.312C206.739 71.11 206.885 70.697 206.864 70.373Z" fill="#952429"/>
<path d="M207.363 67.426C207.328 67.088 207.271 67.089 206.968 67.406C206.788 67.594 206.655 67.936 206.673 68.147C206.709 68.485 206.766 68.484 207.069 68.166C207.248 67.979 207.382 67.637 207.363 67.426Z" fill="#952429"/>
<path d="M207.906 63.25C207.753 62.745 207.6 62.847 207.267 63.716C207 64.399 207.228 64.535 207.725 64.016C207.904 63.829 207.982 63.488 207.906 63.25Z" fill="#952429"/>
<path d="M208.317 57.623C208.209 57.188 208.18 57.188 207.908 57.646C207.418 58.447 207.365 58.59 207.523 58.741C207.797 59.004 208.441 58.1 208.317 57.623Z" fill="#952429"/>
</g>
</g>
<defs>
<clipPath id="clip0_1_16">
<rect width="333" height="331" fill="white" transform="matrix(0 -1 1 0 0 333)"/>
</clipPath>
</defs>
</svg>
